<svg xmlns="http://www.w3.org/2000/svg" viewBox="0 0 292.39 46.12"><g id="Слой_2" data-name="Слой 2"><g id="Слой_1-2" data-name="Слой 1"><path d="M291,10.89A54.87,54.87,0,0,0,272.18.2a4,4,0,0,0-4.78,2c-.52.49-1.4,1.29-2.61,2.28a70.66,70.66,0,0,1-22.87,12.61c-19.44,6.21-38.49,2-56.68-12.61q-1.8-1.43-3.57-3a4,4,0,0,0-6,5.16,39.06,39.06,0,0,0-13,13.52,4,4,0,0,0,6.94,4,30.84,30.84,0,0,1,12.26-11.82c.09,0,.16-.11.24-.16q2.74,2.09,5.46,3.86l-9,9.21a4,4,0,0,0,2.86,6.8,4,4,0,0,0,2.86-1.21l10.41-10.65q2.61,1.35,5.18,2.43a3.94,3.94,0,0,0-1,1.27l-5.75,11.83a4,4,0,0,0,7.2,3.5l5.74-11.84a3.91,3.91,0,0,0,.35-2.36,64.25,64.25,0,0,0,7.44,1.81V38.56a4,4,0,0,0,8,0V27.68c1,.05,2,.08,3,.08a62.63,62.63,0,0,0,12.63-1.3,44.91,44.91,0,0,0,1.07,16.65,4,4,0,0,0,3.87,3,4.34,4.34,0,0,0,1-.12,4,4,0,0,0,2.88-4.87,37.64,37.64,0,0,1-.87-13.82,4,4,0,0,0-.68-2.76,74.89,74.89,0,0,0,13.59-6,44.13,44.13,0,0,0,9.79,10.52,4,4,0,0,0,2.45.84A4,4,0,0,0,273,22.72a35.93,35.93,0,0,1-7.91-8.46,71.59,71.59,0,0,0,7-5.58,46.75,46.75,0,0,1,13.63,8.25,4,4,0,0,0,2.63,1,4,4,0,0,0,2.63-7Z"/><path d="M1.37,10.89A54.87,54.87,0,0,1,20.21.2a4,4,0,0,1,4.78,2c.52.49,1.4,1.29,2.61,2.28A70.66,70.66,0,0,0,50.47,17.05C69.91,23.26,89,19,107.15,4.44q1.78-1.43,3.57-3a4,4,0,0,1,6,5.16,39.15,39.15,0,0,1,13,13.52,4,4,0,0,1-1.49,5.46,4,4,0,0,1-2,.53,4,4,0,0,1-3.47-2,30.8,30.8,0,0,0-12.27-11.82l-.24-.16c-1.83,1.39-3.64,2.68-5.45,3.86l9,9.21a4,4,0,1,1-5.73,5.59L97.73,20.13q-2.61,1.35-5.18,2.43a3.94,3.94,0,0,1,1,1.27l5.75,11.83a4,4,0,0,1-7.2,3.5L86.32,27.32A3.9,3.9,0,0,1,86,25a64.25,64.25,0,0,1-7.44,1.81V38.56a4,4,0,0,1-8,0V27.68c-1,.05-2,.08-3,.08a62.63,62.63,0,0,1-12.63-1.3,45.13,45.13,0,0,1-1.07,16.65,4,4,0,0,1-3.87,3A4.27,4.27,0,0,1,49,46a4,4,0,0,1-2.88-4.87A37.42,37.42,0,0,0,47,27.31a4,4,0,0,1,.69-2.76,74.89,74.89,0,0,1-13.59-6,44,44,0,0,1-9.8,10.52,3.91,3.91,0,0,1-2.44.84,4,4,0,0,1-2.45-7.17,35.93,35.93,0,0,0,7.91-8.46,71.59,71.59,0,0,1-7-5.58A46.75,46.75,0,0,0,6.63,16.93a4,4,0,0,1-5.26-6Z"/></g></g></svg>